<mxfile host="app.diagrams.net" modified="2023-08-24T09:57:31.405Z" agent="Mozilla/5.0 (Windows NT 10.0; Win64; x64) AppleWebKit/537.36 (KHTML, like Gecko) Chrome/116.0.0.0 Safari/537.36 Edg/116.0.0.0" etag="tgv272yXDpOB6JNeHJ5d" version="21.6.8" type="device">
  <diagram name="‫עמוד-1‬" id="uGnybBMJ2z26rtOZOS80">
    <mxGraphModel dx="1478" dy="1008" grid="1" gridSize="10" guides="1" tooltips="1" connect="1" arrows="1" fold="1" page="1" pageScale="1" pageWidth="827" pageHeight="1169" background="none" math="0" shadow="0">
      <root>
        <mxCell id="0" />
        <mxCell id="1" parent="0" />
        <mxCell id="xG4lmy55fqll6rvnVnFJ-50" style="edgeStyle=orthogonalEdgeStyle;rounded=0;orthogonalLoop=1;jettySize=auto;html=1;entryX=1;entryY=0.5;entryDx=0;entryDy=0;fontFamily=Comic Sans MS;sketch=1;curveFitting=1;jiggle=2;" edge="1" parent="1" source="xG4lmy55fqll6rvnVnFJ-2" target="xG4lmy55fqll6rvnVnFJ-36">
          <mxGeometry relative="1" as="geometry" />
        </mxCell>
        <mxCell id="xG4lmy55fqll6rvnVnFJ-52" style="edgeStyle=orthogonalEdgeStyle;rounded=0;orthogonalLoop=1;jettySize=auto;html=1;entryX=1;entryY=0.5;entryDx=0;entryDy=0;fontFamily=Comic Sans MS;sketch=1;curveFitting=1;jiggle=2;" edge="1" parent="1" source="xG4lmy55fqll6rvnVnFJ-2" target="xG4lmy55fqll6rvnVnFJ-45">
          <mxGeometry relative="1" as="geometry" />
        </mxCell>
        <mxCell id="xG4lmy55fqll6rvnVnFJ-66" style="edgeStyle=orthogonalEdgeStyle;rounded=0;orthogonalLoop=1;jettySize=auto;html=1;entryX=1;entryY=0.5;entryDx=0;entryDy=0;" edge="1" parent="1" source="xG4lmy55fqll6rvnVnFJ-2" target="xG4lmy55fqll6rvnVnFJ-7">
          <mxGeometry relative="1" as="geometry" />
        </mxCell>
        <mxCell id="xG4lmy55fqll6rvnVnFJ-2" value="&lt;div style=&quot;line-height: 19px;&quot;&gt;&lt;span style=&quot;background-color: rgb(255, 255, 255);&quot;&gt;&lt;font style=&quot;font-size: 41px;&quot;&gt;Airport&lt;/font&gt;&lt;span style=&quot;font-size: 14px;&quot;&gt;&amp;nbsp;&lt;/span&gt;&lt;/span&gt;&lt;/div&gt;" style="rounded=1;whiteSpace=wrap;html=1;glass=0;shadow=1;sketch=1;curveFitting=1;jiggle=2;strokeColor=default;fontFamily=Comic Sans MS;" vertex="1" parent="1">
          <mxGeometry x="1300" y="110" width="237" height="120" as="geometry" />
        </mxCell>
        <mxCell id="xG4lmy55fqll6rvnVnFJ-3" value="" style="rounded=1;orthogonalLoop=1;jettySize=auto;html=1;strokeColor=default;sketch=1;curveFitting=1;jiggle=2;fontFamily=Comic Sans MS;exitX=0;exitY=0.75;exitDx=0;exitDy=0;" edge="1" parent="1" source="xG4lmy55fqll6rvnVnFJ-7" target="xG4lmy55fqll6rvnVnFJ-8">
          <mxGeometry relative="1" as="geometry" />
        </mxCell>
        <mxCell id="xG4lmy55fqll6rvnVnFJ-4" value="" style="rounded=0;orthogonalLoop=1;jettySize=auto;html=1;sketch=1;curveFitting=1;jiggle=2;fontFamily=Comic Sans MS;" edge="1" parent="1" source="xG4lmy55fqll6rvnVnFJ-7" target="xG4lmy55fqll6rvnVnFJ-9">
          <mxGeometry relative="1" as="geometry" />
        </mxCell>
        <mxCell id="xG4lmy55fqll6rvnVnFJ-5" value="" style="rounded=0;orthogonalLoop=1;jettySize=auto;html=1;sketch=1;curveFitting=1;jiggle=2;fontFamily=Comic Sans MS;entryX=1;entryY=0.5;entryDx=0;entryDy=0;exitX=0;exitY=0.25;exitDx=0;exitDy=0;" edge="1" parent="1" source="xG4lmy55fqll6rvnVnFJ-7" target="xG4lmy55fqll6rvnVnFJ-10">
          <mxGeometry relative="1" as="geometry" />
        </mxCell>
        <mxCell id="xG4lmy55fqll6rvnVnFJ-6" style="rounded=0;orthogonalLoop=1;jettySize=auto;html=1;entryX=1;entryY=0.5;entryDx=0;entryDy=0;sketch=1;curveFitting=1;jiggle=2;fontFamily=Comic Sans MS;exitX=0;exitY=0.5;exitDx=0;exitDy=0;" edge="1" parent="1" source="xG4lmy55fqll6rvnVnFJ-7" target="xG4lmy55fqll6rvnVnFJ-11">
          <mxGeometry relative="1" as="geometry">
            <mxPoint x="1150" y="510" as="targetPoint" />
          </mxGeometry>
        </mxCell>
        <mxCell id="xG4lmy55fqll6rvnVnFJ-7" value="&lt;p&gt;&lt;span style=&quot;font-size: 14px; background-color: rgb(255, 255, 255);&quot;&gt;Pilot&#39;s&amp;nbsp;&lt;/span&gt;&lt;/p&gt;" style="rounded=1;whiteSpace=wrap;html=1;glass=0;shadow=1;sketch=1;curveFitting=1;jiggle=2;fontFamily=Comic Sans MS;" vertex="1" parent="1">
          <mxGeometry x="1267" y="392" width="120" height="60" as="geometry" />
        </mxCell>
        <mxCell id="xG4lmy55fqll6rvnVnFJ-57" style="edgeStyle=orthogonalEdgeStyle;rounded=0;orthogonalLoop=1;jettySize=auto;html=1;entryX=1;entryY=0.5;entryDx=0;entryDy=0;fontFamily=Comic Sans MS;sketch=1;curveFitting=1;jiggle=2;" edge="1" parent="1" source="xG4lmy55fqll6rvnVnFJ-8" target="xG4lmy55fqll6rvnVnFJ-55">
          <mxGeometry relative="1" as="geometry" />
        </mxCell>
        <mxCell id="xG4lmy55fqll6rvnVnFJ-58" style="edgeStyle=orthogonalEdgeStyle;rounded=0;orthogonalLoop=1;jettySize=auto;html=1;fontFamily=Comic Sans MS;sketch=1;curveFitting=1;jiggle=2;" edge="1" parent="1" source="xG4lmy55fqll6rvnVnFJ-8" target="xG4lmy55fqll6rvnVnFJ-56">
          <mxGeometry relative="1" as="geometry" />
        </mxCell>
        <mxCell id="xG4lmy55fqll6rvnVnFJ-68" style="edgeStyle=orthogonalEdgeStyle;rounded=0;orthogonalLoop=1;jettySize=auto;html=1;entryX=1;entryY=0.5;entryDx=0;entryDy=0;fontFamily=Comic Sans MS;sketch=1;curveFitting=1;jiggle=2;" edge="1" parent="1" source="xG4lmy55fqll6rvnVnFJ-8" target="xG4lmy55fqll6rvnVnFJ-67">
          <mxGeometry relative="1" as="geometry" />
        </mxCell>
        <mxCell id="xG4lmy55fqll6rvnVnFJ-8" value="address" style="rounded=1;whiteSpace=wrap;html=1;aspect=fixed;glass=0;shadow=1;sketch=1;curveFitting=1;jiggle=2;fontFamily=Comic Sans MS;" vertex="1" parent="1">
          <mxGeometry x="1030" y="542" width="120" height="60" as="geometry" />
        </mxCell>
        <mxCell id="xG4lmy55fqll6rvnVnFJ-61" style="edgeStyle=orthogonalEdgeStyle;rounded=0;orthogonalLoop=1;jettySize=auto;html=1;fontFamily=Comic Sans MS;sketch=1;curveFitting=1;jiggle=2;" edge="1" parent="1" source="xG4lmy55fqll6rvnVnFJ-9" target="xG4lmy55fqll6rvnVnFJ-59">
          <mxGeometry relative="1" as="geometry" />
        </mxCell>
        <mxCell id="xG4lmy55fqll6rvnVnFJ-62" style="edgeStyle=orthogonalEdgeStyle;rounded=0;orthogonalLoop=1;jettySize=auto;html=1;entryX=1;entryY=0.75;entryDx=0;entryDy=0;fontFamily=Comic Sans MS;sketch=1;curveFitting=1;jiggle=2;" edge="1" parent="1" source="xG4lmy55fqll6rvnVnFJ-9" target="xG4lmy55fqll6rvnVnFJ-60">
          <mxGeometry relative="1" as="geometry" />
        </mxCell>
        <mxCell id="xG4lmy55fqll6rvnVnFJ-9" value="Name" style="rounded=1;whiteSpace=wrap;html=1;aspect=fixed;glass=0;shadow=1;sketch=1;curveFitting=1;jiggle=2;fontFamily=Comic Sans MS;" vertex="1" parent="1">
          <mxGeometry x="1034" y="362" width="120" height="60" as="geometry" />
        </mxCell>
        <mxCell id="xG4lmy55fqll6rvnVnFJ-10" value="ID" style="rounded=1;whiteSpace=wrap;html=1;gradientColor=none;aspect=fixed;glass=0;shadow=1;sketch=1;curveFitting=1;jiggle=2;fontFamily=Comic Sans MS;labelBackgroundColor=none;" vertex="1" parent="1">
          <mxGeometry x="1034" y="264" width="120" height="60" as="geometry" />
        </mxCell>
        <mxCell id="xG4lmy55fqll6rvnVnFJ-11" value="Age" style="rounded=1;whiteSpace=wrap;html=1;aspect=fixed;glass=0;shadow=1;sketch=1;curveFitting=1;jiggle=2;fontFamily=Comic Sans MS;" vertex="1" parent="1">
          <mxGeometry x="1034" y="452" width="120" height="60" as="geometry" />
        </mxCell>
        <mxCell id="xG4lmy55fqll6rvnVnFJ-33" value="" style="rounded=0;orthogonalLoop=1;jettySize=auto;html=1;sketch=1;curveFitting=1;jiggle=2;fontFamily=Comic Sans MS;" edge="1" source="xG4lmy55fqll6rvnVnFJ-36" target="xG4lmy55fqll6rvnVnFJ-38" parent="1">
          <mxGeometry relative="1" as="geometry" />
        </mxCell>
        <mxCell id="xG4lmy55fqll6rvnVnFJ-34" value="" style="rounded=0;orthogonalLoop=1;jettySize=auto;html=1;sketch=1;curveFitting=1;jiggle=2;fontFamily=Comic Sans MS;" edge="1" source="xG4lmy55fqll6rvnVnFJ-36" target="xG4lmy55fqll6rvnVnFJ-39" parent="1">
          <mxGeometry relative="1" as="geometry" />
        </mxCell>
        <mxCell id="xG4lmy55fqll6rvnVnFJ-35" style="rounded=0;orthogonalLoop=1;jettySize=auto;html=1;entryX=1;entryY=0.25;entryDx=0;entryDy=0;sketch=1;curveFitting=1;jiggle=2;fontFamily=Comic Sans MS;" edge="1" source="xG4lmy55fqll6rvnVnFJ-36" target="xG4lmy55fqll6rvnVnFJ-40" parent="1">
          <mxGeometry relative="1" as="geometry">
            <mxPoint x="1142" y="924" as="targetPoint" />
          </mxGeometry>
        </mxCell>
        <mxCell id="xG4lmy55fqll6rvnVnFJ-36" value="&lt;p&gt;&lt;span style=&quot;font-size: 14px; background-color: rgb(255, 255, 255);&quot;&gt;Plains&amp;nbsp;&lt;/span&gt;&lt;/p&gt;" style="rounded=1;whiteSpace=wrap;html=1;glass=0;shadow=1;sketch=1;curveFitting=1;jiggle=2;fontFamily=Comic Sans MS;" vertex="1" parent="1">
          <mxGeometry x="1259" y="770" width="120" height="60" as="geometry" />
        </mxCell>
        <mxCell id="xG4lmy55fqll6rvnVnFJ-38" value="Model" style="rounded=1;whiteSpace=wrap;html=1;aspect=fixed;glass=0;shadow=1;sketch=1;curveFitting=1;jiggle=2;fontFamily=Comic Sans MS;" vertex="1" parent="1">
          <mxGeometry x="1015" y="776" width="120" height="60" as="geometry" />
        </mxCell>
        <mxCell id="xG4lmy55fqll6rvnVnFJ-39" value="ID" style="rounded=1;whiteSpace=wrap;html=1;gradientColor=none;aspect=fixed;glass=0;shadow=1;sketch=1;curveFitting=1;jiggle=2;fontFamily=Comic Sans MS;labelBackgroundColor=none;" vertex="1" parent="1">
          <mxGeometry x="1015" y="690" width="120" height="60" as="geometry" />
        </mxCell>
        <mxCell id="xG4lmy55fqll6rvnVnFJ-40" value="Status&amp;nbsp;" style="rounded=1;whiteSpace=wrap;html=1;aspect=fixed;glass=0;shadow=1;sketch=1;curveFitting=1;jiggle=2;fontFamily=Comic Sans MS;" vertex="1" parent="1">
          <mxGeometry x="1015" y="860" width="120" height="60" as="geometry" />
        </mxCell>
        <mxCell id="xG4lmy55fqll6rvnVnFJ-41" value="" style="rounded=0;orthogonalLoop=1;jettySize=auto;html=1;strokeColor=default;sketch=1;curveFitting=1;jiggle=2;fontFamily=Comic Sans MS;" edge="1" source="xG4lmy55fqll6rvnVnFJ-45" target="xG4lmy55fqll6rvnVnFJ-46" parent="1">
          <mxGeometry relative="1" as="geometry" />
        </mxCell>
        <mxCell id="xG4lmy55fqll6rvnVnFJ-42" value="" style="rounded=0;orthogonalLoop=1;jettySize=auto;html=1;sketch=1;curveFitting=1;jiggle=2;fontFamily=Comic Sans MS;" edge="1" source="xG4lmy55fqll6rvnVnFJ-45" target="xG4lmy55fqll6rvnVnFJ-47" parent="1">
          <mxGeometry relative="1" as="geometry" />
        </mxCell>
        <mxCell id="xG4lmy55fqll6rvnVnFJ-43" value="" style="rounded=0;orthogonalLoop=1;jettySize=auto;html=1;sketch=1;curveFitting=1;jiggle=2;fontFamily=Comic Sans MS;entryX=1;entryY=0.75;entryDx=0;entryDy=0;" edge="1" source="xG4lmy55fqll6rvnVnFJ-45" target="xG4lmy55fqll6rvnVnFJ-48" parent="1">
          <mxGeometry relative="1" as="geometry" />
        </mxCell>
        <mxCell id="xG4lmy55fqll6rvnVnFJ-44" style="rounded=0;orthogonalLoop=1;jettySize=auto;html=1;entryX=1;entryY=0.5;entryDx=0;entryDy=0;sketch=1;curveFitting=1;jiggle=2;fontFamily=Comic Sans MS;" edge="1" source="xG4lmy55fqll6rvnVnFJ-45" target="xG4lmy55fqll6rvnVnFJ-49" parent="1">
          <mxGeometry relative="1" as="geometry">
            <mxPoint x="1135" y="1208" as="targetPoint" />
          </mxGeometry>
        </mxCell>
        <mxCell id="xG4lmy55fqll6rvnVnFJ-45" value="&lt;p&gt;&lt;span style=&quot;font-size: 14px; background-color: rgb(255, 255, 255);&quot;&gt;Destinations&amp;nbsp;&lt;/span&gt;&lt;/p&gt;" style="rounded=1;whiteSpace=wrap;html=1;glass=0;shadow=1;sketch=1;curveFitting=1;jiggle=2;fontFamily=Comic Sans MS;" vertex="1" parent="1">
          <mxGeometry x="1259" y="1160" width="120" height="60" as="geometry" />
        </mxCell>
        <mxCell id="xG4lmy55fqll6rvnVnFJ-46" value="&lt;blockquote style=&quot;margin: 0 0 0 40px; border: none; padding: 0px;&quot;&gt;Middle east&lt;/blockquote&gt;" style="rounded=1;whiteSpace=wrap;html=1;aspect=fixed;glass=0;shadow=1;sketch=1;curveFitting=1;jiggle=2;fontFamily=Comic Sans MS;" vertex="1" parent="1">
          <mxGeometry x="1015" y="1240" width="120" height="60" as="geometry" />
        </mxCell>
        <mxCell id="xG4lmy55fqll6rvnVnFJ-47" value="Asia&amp;nbsp;" style="rounded=1;whiteSpace=wrap;html=1;aspect=fixed;glass=0;shadow=1;sketch=1;curveFitting=1;jiggle=2;fontFamily=Comic Sans MS;" vertex="1" parent="1">
          <mxGeometry x="1019" y="1060" width="120" height="60" as="geometry" />
        </mxCell>
        <mxCell id="xG4lmy55fqll6rvnVnFJ-48" value="Europe&amp;nbsp;" style="rounded=1;whiteSpace=wrap;html=1;gradientColor=none;aspect=fixed;glass=0;shadow=1;sketch=1;curveFitting=1;jiggle=2;fontFamily=Comic Sans MS;labelBackgroundColor=none;" vertex="1" parent="1">
          <mxGeometry x="1018" y="969" width="120" height="60" as="geometry" />
        </mxCell>
        <mxCell id="xG4lmy55fqll6rvnVnFJ-49" value="America&amp;nbsp;" style="rounded=1;whiteSpace=wrap;html=1;aspect=fixed;glass=0;shadow=1;sketch=1;curveFitting=1;jiggle=2;fontFamily=Comic Sans MS;" vertex="1" parent="1">
          <mxGeometry x="1019" y="1150" width="120" height="60" as="geometry" />
        </mxCell>
        <mxCell id="xG4lmy55fqll6rvnVnFJ-55" value="City" style="rounded=1;whiteSpace=wrap;html=1;aspect=fixed;glass=0;shadow=1;sketch=1;curveFitting=1;jiggle=2;fontFamily=Comic Sans MS;" vertex="1" parent="1">
          <mxGeometry x="840" y="467" width="120" height="60" as="geometry" />
        </mxCell>
        <mxCell id="xG4lmy55fqll6rvnVnFJ-56" value="State" style="rounded=1;whiteSpace=wrap;html=1;aspect=fixed;glass=0;shadow=1;sketch=1;curveFitting=1;jiggle=2;fontFamily=Comic Sans MS;" vertex="1" parent="1">
          <mxGeometry x="840" y="543" width="120" height="60" as="geometry" />
        </mxCell>
        <mxCell id="xG4lmy55fqll6rvnVnFJ-59" value="First name" style="rounded=1;whiteSpace=wrap;html=1;aspect=fixed;glass=0;shadow=1;sketch=1;curveFitting=1;jiggle=2;fontFamily=Comic Sans MS;" vertex="1" parent="1">
          <mxGeometry x="840" y="313" width="120" height="60" as="geometry" />
        </mxCell>
        <mxCell id="xG4lmy55fqll6rvnVnFJ-60" value="Last name" style="rounded=1;whiteSpace=wrap;html=1;aspect=fixed;glass=0;shadow=1;sketch=1;curveFitting=1;jiggle=2;fontFamily=Comic Sans MS;" vertex="1" parent="1">
          <mxGeometry x="842" y="389" width="120" height="60" as="geometry" />
        </mxCell>
        <mxCell id="xG4lmy55fqll6rvnVnFJ-63" value="Africa&amp;nbsp;" style="rounded=1;whiteSpace=wrap;html=1;aspect=fixed;glass=0;shadow=1;sketch=1;curveFitting=1;jiggle=2;fontFamily=Comic Sans MS;" vertex="1" parent="1">
          <mxGeometry x="1015" y="1330" width="120" height="60" as="geometry" />
        </mxCell>
        <mxCell id="xG4lmy55fqll6rvnVnFJ-65" value="" style="rounded=0;orthogonalLoop=1;jettySize=auto;html=1;strokeColor=default;sketch=1;curveFitting=1;jiggle=2;fontFamily=Comic Sans MS;exitX=0.25;exitY=1;exitDx=0;exitDy=0;entryX=1;entryY=0.5;entryDx=0;entryDy=0;" edge="1" parent="1" source="xG4lmy55fqll6rvnVnFJ-45" target="xG4lmy55fqll6rvnVnFJ-63">
          <mxGeometry relative="1" as="geometry">
            <mxPoint x="1275" y="1160" as="sourcePoint" />
            <mxPoint x="1132" y="1250" as="targetPoint" />
          </mxGeometry>
        </mxCell>
        <mxCell id="xG4lmy55fqll6rvnVnFJ-67" value="Pin" style="rounded=1;whiteSpace=wrap;html=1;aspect=fixed;glass=0;shadow=1;sketch=1;curveFitting=1;jiggle=2;fontFamily=Comic Sans MS;" vertex="1" parent="1">
          <mxGeometry x="840" y="621" width="120" height="60" as="geometry" />
        </mxCell>
        <mxCell id="xG4lmy55fqll6rvnVnFJ-71" value="" style="rounded=1;whiteSpace=wrap;html=1;fillColor=none;" vertex="1" parent="1">
          <mxGeometry x="780" y="70" width="840" height="1400" as="geometry" />
        </mxCell>
      </root>
    </mxGraphModel>
  </diagram>
</mxfile>
